<?xml version="1.0" encoding="UTF-8" standalone="no"?>
<svg
   xmlns:dc="http://purl.org/dc/elements/1.1/"
   xmlns:cc="http://creativecommons.org/ns#"
   xmlns:rdf="http://www.w3.org/1999/02/22-rdf-syntax-ns#"
   xmlns:svg="http://www.w3.org/2000/svg"
   xmlns="http://www.w3.org/2000/svg"
   xmlns:sodipodi="http://sodipodi.sourceforge.net/DTD/sodipodi-0.dtd"
   xmlns:inkscape="http://www.inkscape.org/namespaces/inkscape"
   width="170.63452mm"
   height="151.10179mm"
   viewBox="0 0 170.63452 151.10179"
   version="1.1"
   id="svg8"
   inkscape:version="1.0.2-2 (e86c870879, 2021-01-15)"
   sodipodi:docname="Logo.svg"
   inkscape:export-filename="C:\Users\pablo\OneDrive - SM\Gala Mácula\Logos\Circular\Svg\png\360.png"
   inkscape:export-xdpi="60.515495"
   inkscape:export-ydpi="60.515495">
  <defs
     id="defs2" />
  <sodipodi:namedview
     id="base"
     pagecolor="#ffffff"
     bordercolor="#666666"
     borderopacity="1.0"
     inkscape:pageopacity="0.0"
     inkscape:pageshadow="2"
     inkscape:zoom="1.2860449"
     inkscape:cx="316.69496"
     inkscape:cy="290.28009"
     inkscape:document-units="mm"
     inkscape:current-layer="layer3"
     inkscape:document-rotation="0"
     showgrid="false"
     inkscape:window-width="1920"
     inkscape:window-height="1009"
     inkscape:window-x="-8"
     inkscape:window-y="112"
     inkscape:window-maximized="1"
     units="mm"
     width="211mm"
     fit-margin-top="0"
     fit-margin-left="0"
     fit-margin-right="0"
     fit-margin-bottom="0"
     showguides="false" />
  <metadata
     id="metadata5">
    <rdf:RDF>
      <cc:Work
         rdf:about="">
        <dc:format>image/svg+xml</dc:format>
        <dc:type
           rdf:resource="http://purl.org/dc/dcmitype/StillImage" />
        <dc:title />
      </cc:Work>
    </rdf:RDF>
  </metadata>
  <g
     inkscape:groupmode="layer"
     id="layer3"
     inkscape:label="Capa 3">
    <path
       style="display:inline;fill:#ffffff;stroke:#000000;stroke-width:2;stroke-linecap:round;stroke-linejoin:miter;stroke-miterlimit:4;stroke-dasharray:none;stroke-opacity:1;fill-opacity:1"
       d="m 51.177013,125.1956 c 0,0 24.799547,-31.276607 51.858397,-31.536608 27.05885,-0.259998 50.88062,31.481038 50.88062,31.481038 0,0 -22.14845,31.54297 -49.64356,31.657 C 76.77736,156.91105 51.177013,125.1956 51.177013,125.1956 Z"
       id="path1157-9"
       transform="translate(-18.260243,-49.612254)" />
  </g>
  <g
     inkscape:groupmode="layer"
     id="layer2"
     inkscape:label="Capa 2"
     style="display:inline"
     transform="translate(-18.260243,-49.612254)">
    <circle
       style="fill:#00000e;fill-opacity:1;stroke:#000000;stroke-width:2;stroke-linecap:round;stroke-miterlimit:4;stroke-dasharray:none;stroke-opacity:1"
       id="path1169"
       cx="103.28084"
       cy="124.28925"
       r="23.673197" />
  </g>
  <g
     inkscape:label="Capa 1"
     inkscape:groupmode="layer"
     id="layer1"
     style="display:inline"
     transform="translate(-18.260243,-49.612254)">
    <path
       style="fill:#000000;fill-opacity:1;stroke:#000000;stroke-width:0.264583px;stroke-linecap:butt;stroke-linejoin:miter;stroke-opacity:1"
       d="m 155.42567,187.96365 c 0,0 -12.69299,10.44338 -18.22291,3.87666 -2.57924,-3.06282 3.26959,-17.48218 7.68728,-17.94329 2.02038,-0.21088 -1.27584,12.3842 -1.27584,12.3842 0,0 11.8006,0.33573 11.81147,1.68243 z"
       id="path28"
       sodipodi:nodetypes="csscc" />
    <path
       style="fill:#000000;fill-opacity:1;stroke:#000000;stroke-width:0.264583px;stroke-linecap:butt;stroke-linejoin:miter;stroke-opacity:1"
       d="m 137.42585,199.26854 c 0,0 -15.7012,4.52789 -18.34816,-3.23223 -1.67129,-4.89972 9.58042,-14.98439 13.84917,-13.75705 1.95238,0.5609 -5.82214,11.00454 -5.82214,11.00454 0,0 10.81555,4.73185 10.32114,5.98455 z"
       id="path28-0"
       sodipodi:nodetypes="cssccc" />
    <path
       style="fill:#000000;fill-opacity:1;stroke:#000000;stroke-width:0.264583px;stroke-linecap:butt;stroke-linejoin:miter;stroke-opacity:1"
       d="m 155.37816,179.51033 c 0,0 5.52707,6.68538 20.24078,-11.09517 1.36382,-1.64809 -14.73726,2.92028 -14.73726,2.92028 0,0 -0.35252,-10.00327 -4.03305,-13.98237 -0.90742,-0.98103 -9.68127,14.25881 -1.47047,22.15726 z"
       id="path913"
       sodipodi:nodetypes="cscsc" />
    <path
       style="fill:#000000;fill-opacity:1;stroke:#000000;stroke-width:0.264583px;stroke-linecap:butt;stroke-linejoin:miter;stroke-opacity:1"
       d="m 168.87199,162.45725 c 0,0 9.17011,5.24857 17.19018,-18.64462 0.68073,-2.02801 -14.47924,6.85134 -14.47924,6.85134 0,0 -3.88562,-12.48437 -8.78875,-14.79498 -1.20884,-0.56967 -4.49392,22.34076 6.07781,26.58826 z"
       id="path913-5"
       sodipodi:nodetypes="cscsc" />
    <path
       style="fill:#000000;fill-opacity:1;stroke:#000000;stroke-width:0.264583px;stroke-linecap:butt;stroke-linejoin:miter;stroke-opacity:1"
       d="m 177.31499,140.25087 c 0,0 12.95373,0.16767 11.30214,-23.40569 -0.14951,-2.13397 -12.19878,11.0248 -12.19878,11.0248 0,0 -8.6988,-10.73794 -14.11047,-11.04355 -1.33422,-0.0754 3.61404,23.44647 15.00711,23.42444 z"
       id="path913-5-3"
       sodipodi:nodetypes="cscsc" />
    <path
       style="fill:#000000;fill-opacity:1;stroke:#000000;stroke-width:0.264583px;stroke-linecap:butt;stroke-linejoin:miter;stroke-opacity:1"
       d="m 178.16575,116.74252 c 0,0 11.8796,-10.44054 2.91855,-26.450704 -1.61371,-2.88312 -7.75195,15.956514 -7.75195,15.956514 0,0 -12.16984,-8.171194 -16.11408,-7.074984 -1.28755,0.35785 10.39226,21.857524 20.94748,17.569174 z"
       id="path913-5-3-7"
       sodipodi:nodetypes="cscsc" />
    <path
       style="fill:#000000;fill-opacity:1;stroke:#000000;stroke-width:0.264583px;stroke-linecap:butt;stroke-linejoin:miter;stroke-opacity:1"
       d="m 166.61786,71.13108 c 0,0 12.79664,15.351256 3.4905,22.786596 -4.49785,3.59365 -18.23612,-2.86562 -20.42487,-9.82457 -0.70605,-2.24484 11.52259,1.01535 14.32203,1.403 1.65465,0.22912 -1.26791,-11.362276 2.61234,-14.365026 z"
       id="path1010"
       sodipodi:nodetypes="csssc" />
    <path
       style="fill:#000000;fill-opacity:1;stroke:#000000;stroke-width:0.264583px;stroke-linecap:butt;stroke-linejoin:miter;stroke-opacity:1"
       d="m 150.45277,54.70249 c 0,0 12.67718,14.0935 5.67824,20.12039 -4.36259,3.75669 -16.14191,0.80762 -18.33066,-6.15133 -0.70605,-2.24484 9.38701,-0.9934 12.18645,-0.60575 1.65465,0.22912 -2.15398,-11.18837 0.46597,-13.36331 z"
       id="path1010-9"
       sodipodi:nodetypes="csssc" />
    <path
       style="fill:#000000;fill-opacity:1;stroke:#000000;stroke-width:0.264583px;stroke-linecap:butt;stroke-linejoin:miter;stroke-opacity:1"
       d="m 142.64857,61.95204 c 0,0 -0.83186,-12.01239 -17.61994,-12.00384 -2.00705,10e-4 7.85058,15.33716 17.61994,12.00384 z"
       id="path1032"
       sodipodi:nodetypes="csc" />
    <path
       style="fill:#000000;fill-opacity:1;stroke:#000000;stroke-width:0.264583px;stroke-linecap:butt;stroke-linejoin:miter;stroke-opacity:1"
       d="m 51.729346,187.76 c 0,0 12.69299,10.44338 18.22291,3.87666 2.57924,-3.06282 -3.26959,-17.48218 -7.68728,-17.94329 -2.02038,-0.21088 1.27584,12.3842 1.27584,12.3842 0,0 -11.8006,0.33573 -11.81147,1.68243 z"
       id="path28-2"
       sodipodi:nodetypes="csscc" />
    <path
       style="fill:#000000;fill-opacity:1;stroke:#000000;stroke-width:0.264583px;stroke-linecap:butt;stroke-linejoin:miter;stroke-opacity:1"
       d="m 69.729166,199.06489 c 0,0 15.7012,4.52789 18.34816,-3.23223 1.67129,-4.89972 -9.58042,-14.98439 -13.84917,-13.75705 -1.95238,0.5609 5.82214,11.00454 5.82214,11.00454 0,0 -10.81555,4.73185 -10.32114,5.98455 z"
       id="path28-0-6"
       sodipodi:nodetypes="cssccc" />
    <path
       style="fill:#000000;fill-opacity:1;stroke:#000000;stroke-width:0.264583px;stroke-linecap:butt;stroke-linejoin:miter;stroke-opacity:1"
       d="m 51.776856,179.30668 c 0,0 -5.52707,6.68538 -20.24078,-11.09517 -1.36382,-1.64809 14.73726,2.92028 14.73726,2.92028 0,0 0.35252,-10.00327 4.03305,-13.98237 0.90742,-0.98103 9.68127,14.25881 1.47047,22.15726 z"
       id="path913-1"
       sodipodi:nodetypes="cscsc" />
    <path
       style="fill:#000000;fill-opacity:1;stroke:#000000;stroke-width:0.264583px;stroke-linecap:butt;stroke-linejoin:miter;stroke-opacity:1"
       d="m 38.283026,162.2536 c 0,0 -9.17011,5.24857 -17.190182,-18.64462 -0.68073,-2.02801 14.479242,6.85134 14.479242,6.85134 0,0 3.88562,-12.48437 8.78875,-14.79498 1.20884,-0.56967 4.49392,22.34076 -6.07781,26.58826 z"
       id="path913-5-5"
       sodipodi:nodetypes="cscsc" />
    <path
       style="fill:#000000;fill-opacity:1;stroke:#000000;stroke-width:0.264583px;stroke-linecap:butt;stroke-linejoin:miter;stroke-opacity:1"
       d="m 29.840026,140.04722 c 0,0 -12.953732,0.16767 -11.302142,-23.40569 0.14951,-2.13397 12.198782,11.0248 12.198782,11.0248 0,0 8.6988,-10.73794 14.11047,-11.04355 1.33422,-0.0754 -3.61404,23.44647 -15.00711,23.42444 z"
       id="path913-5-3-0"
       sodipodi:nodetypes="cscsc" />
    <path
       style="fill:#000000;fill-opacity:1;stroke:#000000;stroke-width:0.264583px;stroke-linecap:butt;stroke-linejoin:miter;stroke-opacity:1"
       d="m 28.989266,116.53887 c 0,0 -11.879602,-10.44054 -2.91855,-26.450704 1.61371,-2.88312 7.75195,15.956514 7.75195,15.956514 0,0 12.16984,-8.171194 16.11408,-7.074984 1.28755,0.35785 -10.39226,21.857524 -20.94748,17.569174 z"
       id="path913-5-3-7-3"
       sodipodi:nodetypes="cscsc" />
    <path
       style="fill:#000000;fill-opacity:1;stroke:#000000;stroke-width:0.264583px;stroke-linecap:butt;stroke-linejoin:miter;stroke-opacity:1"
       d="m 40.537156,70.92743 c 0,0 -12.79664,15.351256 -3.4905,22.786596 4.49785,3.59365 18.23612,-2.86562 20.42487,-9.82457 0.70605,-2.24484 -11.52259,1.01535 -14.32203,1.403 -1.65465,0.22912 1.26791,-11.362276 -2.61234,-14.365026 z"
       id="path1010-8"
       sodipodi:nodetypes="csssc" />
    <path
       style="fill:#000000;fill-opacity:1;stroke:#000000;stroke-width:0.264583px;stroke-linecap:butt;stroke-linejoin:miter;stroke-opacity:1"
       d="m 56.702246,54.49884 c 0,0 -12.67718,14.0935 -5.67824,20.12039 4.36259,3.75669 16.14191,0.80762 18.33066,-6.15133 0.70605,-2.24484 -9.38701,-0.9934 -12.18645,-0.60575 -1.65465,0.22912 2.15398,-11.18837 -0.46597,-13.36331 z"
       id="path1010-9-7"
       sodipodi:nodetypes="csssc" />
    <path
       style="fill:#000000;fill-opacity:1;stroke:#000000;stroke-width:0.264583px;stroke-linecap:butt;stroke-linejoin:miter;stroke-opacity:1"
       d="m 64.506446,61.74839 c 0,0 0.83186,-12.01239 17.61994,-12.00384 2.00705,0.001 -7.85058,15.33716 -17.61994,12.00384 z"
       id="path1032-8"
       sodipodi:nodetypes="csc" />
    <path
       style="fill:none;fill-opacity:1;stroke-width:3.165;stroke-miterlimit:4;stroke-dasharray:none"
       id="path1155"
       d="m 53.163371,124.35191 c 0.729232,-0.9038 1.562812,-1.71881 2.379808,-2.54248 1.357784,-1.35914 2.812582,-2.6145 4.248674,-3.88885 1.499346,-1.33187 2.973147,-2.69106 4.424307,-4.07516 1.342565,-1.26634 2.697538,-2.5196 4.060465,-3.76399 1.174951,-1.07426 2.39022,-2.11191 3.67115,-3.05825 1.305835,-0.93609 2.64706,-1.81736 4.009149,-2.66896 -0.07746,0.59002 1.731631,-1.60223 1.650328,-0.96943 -0.0419,0.3261 -1.054558,0.25964 -0.843309,0.51158 0.214275,0.25554 0.592412,-0.30655 0.89146,-0.45415 0.77783,-0.38392 0.962967,-0.45709 1.7512,-0.80806 1.570482,-0.69284 3.187904,-1.26914 4.807032,-1.83579 1.896962,-0.68698 3.811411,-1.321798 5.742398,-1.905802 2.440281,-0.707798 4.906859,-1.321517 7.377022,-1.915158 2.584802,-0.646078 5.196545,-1.165923 7.819395,-1.628912 2.01222,-0.340146 4.04399,-0.572849 6.08615,-0.553617 0.86818,0.03 1.7341,0.161168 2.56274,0.426024 0.56045,0.179139 0.74893,0.274476 1.2971,0.507061 1.71486,0.731224 3.28758,1.723927 4.82525,2.766745 1.83418,1.247159 3.52306,2.684769 5.18333,4.150529 1.6295,1.51128 3.1876,3.09675 4.79235,4.63398 1.56664,1.49333 3.23346,2.87499 4.84863,4.31445 1.99535,1.79341 3.90332,3.6802 5.8468,5.52886 1.65638,1.62246 3.4069,3.14887 5.03702,4.79842 0.32324,0.3271 0.63482,0.66551 0.95223,0.99827 1.2446,1.38093 2.42866,2.84235 3.30013,4.49393 0.62699,1.18826 0.69108,1.52534 1.14125,2.80552 0.12787,0.53966 0.28886,1.07252 0.3836,1.61897 0.42285,2.4389 0.2537,5.02842 -0.66058,7.34302 -0.25798,0.65311 -0.6167,1.26179 -0.92505,1.89269 -0.43409,0.63095 -0.82842,1.29117 -1.30226,1.89284 -2.36821,3.00708 -5.55413,5.29273 -8.76341,7.31677 -0.59103,0.37276 -1.21078,0.6979 -1.81617,1.04684 -7.06221,3.81174 -14.53587,6.87968 -22.24233,9.12554 -1.71045,0.49847 -3.44464,0.91155 -5.16696,1.36732 -1.74653,0.36018 -3.48349,0.77034 -5.23958,1.08054 -3.41666,0.60354 -6.856039,1.03253 -10.325533,1.16588 -3.006088,0.11554 -6.312038,0.0284 -9.292696,-0.47852 -1.36199,-0.23165 -2.684971,-0.65241 -4.027456,-0.97862 -1.185574,-0.51117 -2.424438,-0.91317 -3.556722,-1.5335 -3.226644,-1.76774 -5.799982,-4.43548 -7.367135,-7.77419 -1.362615,-2.90294 -1.302565,-4.10829 -1.770925,-7.25701 0.02848,-1.34447 -0.03598,-2.69414 0.08544,-4.03342 0.379818,-4.18912 1.646547,-8.25734 3.395417,-12.06573 1.467215,-3.19505 2.099678,-3.97136 3.96362,-6.89584 2.376881,-3.35098 5.114734,-6.47023 8.423814,-8.93147 1.693648,-1.2597 1.106162,-1.37671 1.877737,-1.20052 1.791296,-0.87431 3.723937,-1.35007 5.697882,-1.56429 0.997159,-0.10821 1.571445,-0.11496 2.568916,-0.15551 1.48281,-0.0389 2.966146,-0.0168 4.448792,0.0152 0,0 1.631779,-1.18227 1.631779,-1.18227 v 0 c -1.500689,-0.007 -3.001631,-0.0234 -4.502141,0.0107 -0.98335,0.0379 -1.607211,0.0462 -2.590263,0.14855 -2.011,0.20946 -3.98196,0.68727 -5.812017,1.56402 -2.042083,1.15742 -3.203342,1.69058 -4.934035,3.01395 -3.221873,2.4636 -5.870313,5.56909 -8.178789,8.88428 -0.686191,1.09423 -1.42262,2.15852 -2.05858,3.28269 -2.726071,4.81878 -4.719865,10.19793 -5.23907,15.73825 -0.12673,1.35229 -0.07175,2.71549 -0.107625,4.07324 0.460981,3.17763 0.394894,4.39854 1.766012,7.32926 1.581288,3.37994 4.183277,6.06104 7.45894,7.8282 1.150099,0.62045 2.407238,1.01783 3.610854,1.52675 1.36235,0.32 2.705772,0.73535 4.087047,0.96001 2.991467,0.48655 6.382864,0.55855 9.394275,0.4343 3.462496,-0.14287 6.957482,-0.5784 10.367642,-1.1779 1.75696,-0.30886 3.49517,-0.71625 5.24276,-1.07438 1.72241,-0.45328 3.45625,-0.86516 5.16723,-1.35985 7.62177,-2.20364 15.02805,-5.18859 22.02949,-8.9187 1.50249,-0.86656 3.0274,-1.69537 4.50748,-2.59968 0.93027,-0.56838 1.83185,-1.18381 2.71988,-1.81617 2.27155,-1.61754 4.44098,-3.4181 6.17077,-5.6228 0.48162,-0.61383 0.88184,-1.28738 1.32275,-1.93107 0.31159,-0.64325 0.67458,-1.26404 0.93477,-1.92974 0.91836,-2.34963 1.08024,-4.98049 0.6662,-7.45396 -0.0929,-0.55502 -0.25098,-1.09714 -0.37646,-1.64572 -0.45242,-1.3164 -0.50297,-1.62873 -1.14058,-2.84957 -0.87127,-1.66827 -2.05759,-3.1468 -3.31371,-4.53728 -0.319,-0.33445 -0.63213,-0.67459 -0.95699,-1.00336 -1.63072,-1.65035 -3.37973,-3.17964 -5.04031,-4.7991 -1.93661,-1.85315 -3.84696,-3.7337 -5.81074,-5.55835 -1.60529,-1.44623 -3.25919,-2.83775 -4.83776,-4.31355 -1.60893,-1.53724 -3.17241,-3.12124 -4.80116,-4.63749 -1.66063,-1.47557 -3.35627,-2.914349 -5.18743,-4.177084 -1.52891,-1.059005 -3.09178,-2.071473 -4.79533,-2.83234 -0.52267,-0.232738 -0.76233,-0.353939 -1.2988,-0.537427 -0.84335,-0.288449 -1.73119,-0.426527 -2.62046,-0.454554 -2.07274,-0.01437 -4.13299,0.228999 -6.17528,0.574053 -2.62793,0.464571 -5.24584,0.982136 -7.836321,1.627216 -2.461144,0.583049 -4.916771,1.193345 -7.350998,1.881005 -1.919227,0.571299 -3.823568,1.190019 -5.707952,1.868133 -1.629608,0.562818 -3.253856,1.145908 -4.834593,1.836338 -0.894578,0.39342 -1.801011,0.78282 -2.658653,1.25369 -1.433091,0.7868 -2.854137,1.60036 -4.252983,2.44723 -1.371122,0.85833 -2.721941,1.74643 -4.031986,2.69616 -1.264584,0.95819 -2.47414,1.99033 -3.639198,3.06704 -1.356535,1.24349 -2.706748,2.49401 -4.041595,3.76077 -1.450205,1.38285 -2.926863,2.7368 -4.425043,4.06759 -1.444998,1.27993 -2.903405,2.54672 -4.270364,3.91121 -0.850191,0.84857 -1.706015,1.69418 -2.487491,2.60765 0,0 1.986354,-0.84368 1.986354,-0.84368 z" />
    <path
       style="fill:none;stroke:#000000;stroke-width:2;stroke-linecap:round;stroke-linejoin:miter;stroke-miterlimit:4;stroke-dasharray:none;stroke-opacity:1"
       d="m 51.177012,125.1956 c 0,0 24.799549,-31.276611 51.858398,-31.536612 27.05885,-0.259998 50.88062,31.481042 50.88062,31.481042 0,0 -22.14845,31.54297 -49.64356,31.657 C 76.777362,156.91105 51.177012,125.1956 51.177012,125.1956 Z"
       id="path1157" />
    <circle
       style="fill:#ffffff;fill-opacity:1;stroke:none;stroke-width:2;stroke-linecap:round;stroke-miterlimit:4;stroke-dasharray:none;stroke-opacity:1"
       id="path1171"
       cx="103.32108"
       cy="123.83722"
       r="5.9432082" />
    <circle
       style="fill:#ffffff;fill-opacity:1;stroke:none;stroke-width:2;stroke-linecap:round;stroke-miterlimit:4;stroke-dasharray:none;stroke-opacity:1"
       id="path1171-7"
       cx="110.38982"
       cy="130.81927"
       r="1.8584517" />
    <circle
       style="fill:none;fill-opacity:1;stroke:#ffffff;stroke-width:2;stroke-linecap:round;stroke-miterlimit:4;stroke-dasharray:none;stroke-opacity:1"
       id="path1197"
       cx="103.17554"
       cy="124.10336"
       r="19.395739" />
    <path
       style="fill:none;fill-opacity:1;stroke:#fffffd;stroke-width:6;stroke-linecap:butt;stroke-miterlimit:4;stroke-dasharray:none;stroke-opacity:1"
       id="path1171-0"
       sodipodi:type="arc"
       sodipodi:cx="103.55238"
       sodipodi:cy="124.15788"
       sodipodi:rx="12.02184"
       sodipodi:ry="12.075156"
       sodipodi:start="3.2563278"
       sodipodi:end="4.7111133"
       sodipodi:arc-type="arc"
       d="M 91.609585,122.77548 A 12.02184,12.075156 0 0 1 103.53705,112.08274"
       sodipodi:open="true" />
    <path
       style="fill:none;stroke:#000000;stroke-width:3;stroke-linecap:butt;stroke-linejoin:miter;stroke-miterlimit:4;stroke-dasharray:none;stroke-opacity:1"
       d="m 89.826162,114.6453 7.348519,5.6661"
       id="path1232"
       sodipodi:nodetypes="cc" />
  </g>
</svg>
